<?xml version="1.0" encoding="UTF-8"?><svg id="Layer_1" xmlns="http://www.w3.org/2000/svg" viewBox="0 0 483.55 102.21"><defs><style>.cls-1{fill:#fff;}</style></defs><rect class="cls-1" x="23.53" y="-1.67" width="27.57" height="77.99" transform="translate(37.32 -15.46) rotate(45)"/><rect class="cls-1" x="60.84" y="33.28" width="27.57" height="41.35"/><rect class="cls-1" x="19.48" y="74.64" width="41.35" height="27.57"/><path class="cls-1" d="m145.42,70.67l-1.36,4.52h-6.89l9.22-25.61h6.21l9.26,25.61h-6.89l-1.36-4.52h-8.18Zm4.13-13.7l-2.62,8.65h5.17l-2.55-8.65Z"/><path class="cls-1" d="m170.09,49.57h6.39v20.45h10.37v5.17h-16.75v-25.61Z"/><path class="cls-1" d="m190.96,49.57h6.39l5.09,17.29,5.09-17.29h6.35l-8.65,25.61h-5.63l-8.65-25.61Z"/><path class="cls-1" d="m225.01,70.67l-1.36,4.52h-6.89l9.22-25.61h6.21l9.26,25.61h-6.89l-1.36-4.52h-8.18Zm4.13-13.7l-2.62,8.65h5.17l-2.55-8.65Z"/><path class="cls-1" d="m256.08,75.19h-6.39v-25.61h10.04c3.59,0,5.45.5,6.82,1.87s1.87,3.05,1.87,5.88c0,4.41-1.22,6.49-4.41,7.46l5.52,10.4h-7.07l-4.66-9.9h-1.72v9.9Zm3.01-14.74c2.26,0,3.01-.72,3.01-2.91s-.75-2.91-3.01-2.91h-3.12v5.81h3.12Z"/><path class="cls-1" d="m291.35,49.57h6.31v9.04l6.35-9.04h7.46l-8.5,10.62,8.72,15h-7.39l-5.45-10.69-1.18,1.61v9.08h-6.31v-25.61Z"/><path class="cls-1" d="m319.98,49.57h6.39v25.61h-6.39v-25.61Z"/><path class="cls-1" d="m336.67,49.57h6.21l7.86,14.96v-14.96h6.17v25.61h-6.21l-7.86-14.96v14.96h-6.17v-25.61Z"/><path class="cls-1" d="m367.28,49.57h16.57v5.17h-10.26v4.95h8.65v5.17h-8.65v5.17h10.48v5.17h-16.79v-25.61Z"/><path class="cls-1" d="m398.87,54.74h-6.6v-5.17h19.59v5.17h-6.6v20.45h-6.39v-20.45Z"/><path class="cls-1" d="m420.68,49.57h6.39v25.61h-6.39v-25.61Z"/><path class="cls-1" d="m456.09,67.9c-.14,2.55-.65,3.91-1.9,5.27-1.58,1.65-4.02,2.44-7.64,2.44-3.87,0-6.21-.9-7.89-3.05-1.26-1.61-1.72-3.59-1.72-7.28v-5.7c0-3.98.57-6.06,2.12-7.71,1.69-1.87,3.87-2.62,7.46-2.62,3.84,0,6.24.97,7.75,3.08.9,1.29,1.26,2.58,1.36,4.92l-5.85.39c-.25-2.33-1.15-3.26-3.19-3.26-2.55,0-3.26,1.22-3.26,5.7v4.7c0,4.48.68,5.7,3.26,5.7,2.26,0,3.26-.93,3.55-3.3l5.96.72Z"/><path class="cls-1" d="m468.73,67.8c1.15,1.97,2.65,2.73,5.38,2.73,2.26,0,3.34-.83,3.34-2.55,0-1.36-.72-2.08-2.58-2.55-4.48-1.11-5.42-1.43-6.78-2.3-2.04-1.33-2.98-3.23-2.98-6.13,0-5.13,3.12-7.86,8.97-7.86,4.41,0,7.21,1.43,8.97,4.52l-4.7,2.98c-1.26-1.76-2.44-2.4-4.38-2.4-1.79,0-2.76.83-2.76,2.33,0,1.72.97,2.44,4.41,3.3,3.26.83,4.05,1.11,5.35,1.94,1.76,1.15,2.58,3.01,2.58,5.88s-.68,4.63-2.15,5.88c-1.61,1.36-4.16,2.08-7.35,2.08-2.94,0-5.67-.65-7.46-1.83-1.18-.75-1.9-1.51-2.69-2.94l4.84-3.09Z"/></svg>