<?xml version="1.0" encoding="UTF-8"?><svg id="Layer_1" xmlns="http://www.w3.org/2000/svg" viewBox="0 0 346.38 26.51"><defs><style>.cls-1{fill:#fff;}</style></defs><path class="cls-1" d="m8.25,21.52l-1.36,4.52H0L9.22.43h6.21l9.26,25.61h-6.89l-1.36-4.52h-8.18Zm4.13-13.7l-2.62,8.65h5.17l-2.55-8.65Z"/><path class="cls-1" d="m32.92.43h6.39v20.45h10.37v5.17h-16.75V.43Z"/><path class="cls-1" d="m53.79.43h6.39l5.09,17.29L70.36.43h6.35l-8.65,25.61h-5.63L53.79.43Z"/><path class="cls-1" d="m87.83,21.52l-1.36,4.52h-6.89L88.8.43h6.21l9.26,25.61h-6.89l-1.36-4.52h-8.18Zm4.13-13.7l-2.62,8.65h5.17l-2.55-8.65Z"/><path class="cls-1" d="m118.91,26.04h-6.39V.43h10.04c3.59,0,5.45.5,6.82,1.87s1.87,3.05,1.87,5.88c0,4.41-1.22,6.49-4.41,7.46l5.52,10.4h-7.07l-4.66-9.9h-1.72v9.9Zm3.01-14.74c2.26,0,3.01-.72,3.01-2.91s-.75-2.91-3.01-2.91h-3.12v5.81h3.12Z"/><path class="cls-1" d="m154.18.43h6.31v9.04l6.35-9.04h7.46l-8.5,10.62,8.72,15h-7.39l-5.45-10.69-1.18,1.61v9.08h-6.31V.43Z"/><path class="cls-1" d="m182.81.43h6.39v25.61h-6.39V.43Z"/><path class="cls-1" d="m199.5.43h6.21l7.86,14.96V.43h6.17v25.61h-6.21l-7.86-14.96v14.96h-6.17V.43Z"/><path class="cls-1" d="m230.11.43h16.57v5.17h-10.26v4.95h8.65v5.17h-8.65v5.17h10.48v5.17h-16.79V.43Z"/><path class="cls-1" d="m261.7,5.6h-6.6V.43h19.59v5.17h-6.6v20.45h-6.39V5.6Z"/><path class="cls-1" d="m283.51.43h6.39v25.61h-6.39V.43Z"/><path class="cls-1" d="m318.92,18.76c-.14,2.55-.65,3.91-1.9,5.27-1.58,1.65-4.02,2.44-7.64,2.44-3.87,0-6.21-.9-7.89-3.05-1.26-1.61-1.72-3.59-1.72-7.28v-5.7c0-3.98.57-6.06,2.12-7.71,1.69-1.87,3.87-2.62,7.46-2.62,3.84,0,6.24.97,7.75,3.08.9,1.29,1.26,2.58,1.36,4.92l-5.85.39c-.25-2.33-1.15-3.26-3.19-3.26-2.55,0-3.26,1.22-3.26,5.7v4.7c0,4.48.68,5.7,3.26,5.7,2.26,0,3.26-.93,3.55-3.3l5.96.72Z"/><path class="cls-1" d="m331.56,18.65c1.15,1.97,2.65,2.73,5.38,2.73,2.26,0,3.34-.83,3.34-2.55,0-1.36-.72-2.08-2.58-2.55-4.48-1.11-5.42-1.43-6.78-2.3-2.04-1.33-2.98-3.23-2.98-6.13,0-5.13,3.12-7.86,8.97-7.86,4.41,0,7.21,1.43,8.97,4.52l-4.7,2.98c-1.26-1.76-2.44-2.4-4.38-2.4-1.79,0-2.76.83-2.76,2.33,0,1.72.97,2.44,4.41,3.3,3.26.83,4.05,1.11,5.35,1.94,1.76,1.15,2.58,3.01,2.58,5.88s-.68,4.63-2.15,5.88c-1.61,1.36-4.16,2.08-7.35,2.08-2.94,0-5.67-.65-7.46-1.83-1.18-.75-1.9-1.51-2.69-2.94l4.84-3.09Z"/></svg>